<svg xmlns="http://www.w3.org/2000/svg" width="24" height="24" viewBox="0 0 24 24"><circle cx="12" cy="12" r="12" fill="#6366f1"/><path d="M12 4.5a7.5 7.5 0 1 0 0 15 7.5 7.5 0 0 0 0-15zm0 1.5c.41 0 .81.03 1.2.09-.15.17-.35.41-.55.72-.4.61-.8 1.45-1.05 2.49h-.6c-.25-1.04-.65-1.88-1.05-2.49-.2-.31-.4-.55-.55-.72.39-.06.79-.09 1.2-.09h1.4zm-2.85.54c.1.13.21.28.33.47.36.55.72 1.32.96 2.29H8.1a6.02 6.02 0 0 1 1.05-2.76zm5.7 0A6.02 6.02 0 0 1 15.9 9.3h-2.34c.24-.97.6-1.74.96-2.29.12-.19.23-.34.33-.47zM7.62 10.8h2.58c-.05.39-.08.79-.08 1.2s.03.81.08 1.2H7.62a5.96 5.96 0 0 1 0-2.4zm4.08 0h.6c.05.39.08.79.08 1.2s-.03.81-.08 1.2h-.6c-.05-.39-.08-.79-.08-1.2s.03-.81.08-1.2zm2.1 0h2.58a5.96 5.96 0 0 1 0 2.4H13.8c.05-.39.08-.79.08-1.2s-.03-.81-.08-1.2zm-5.7 3.9h2.34c-.24.97-.6 1.74-.96 2.29-.12.19-.23.34-.33.47a6.02 6.02 0 0 1-1.05-2.76zm3.9 0h.6c.25 1.04.65 1.88 1.05 2.49.2.31.4.55.55.72-.39.06-.79.09-1.2.09h-1.4c-.41 0-.81-.03-1.2-.09.15-.17.35-.41.55-.72.4-.61.8-1.45 1.05-2.49zm2.1 0h2.34a6.02 6.02 0 0 1-1.05 2.76c-.1-.13-.21-.28-.33-.47-.36-.55-.72-1.32-.96-2.29z" fill="#fff"/></svg>



